<svg width="18" height="18" viewBox="0 0 18 18" fill="none" xmlns="http://www.w3.org/2000/svg">
<path d="M2.43521 4.55775C2.90576 4.22887 3.61509 4.29194 4.03758 4.64085L3.55302 3.93653C3.16306 3.38038 3.30272 2.77868 3.85937 2.38822C4.41602 1.99927 5.99336 3.04499 5.99336 3.04499C5.5999 2.48333 5.67349 1.7715 6.23514 1.37754C6.7968 0.985083 7.5717 1.12074 7.96516 1.6834L13.1812 9.052L12.5165 15.497L6.9685 13.4737L2.12936 6.29878C1.73239 5.73362 1.86955 4.95421 2.43521 4.55775Z" fill="#D2A077"/>
<path d="M1.34966 8.65724C1.34966 8.65724 0.782997 7.83127 1.60946 7.26511C2.43492 6.69895 3.00108 7.52442 3.00108 7.52442L5.62965 11.3579C5.72026 11.2067 5.81937 11.0575 5.93 10.9104L2.28175 5.59066C2.28175 5.59066 1.71558 4.7652 2.54155 4.19904C3.36701 3.63288 3.93317 4.45834 3.93317 4.45834L7.36468 9.46268C7.49233 9.35856 7.62298 9.25393 7.75764 9.15131L3.77949 3.34905C3.77949 3.34905 3.21333 2.52358 4.0393 1.95742C4.86476 1.39126 5.43092 2.21672 5.43092 2.21672L9.40906 8.01799C9.55523 7.92839 9.6999 7.8508 9.84507 7.7687L6.12673 2.34638C6.12673 2.34638 5.56057 1.52091 6.38603 0.954752C7.2115 0.388592 7.77766 1.21405 7.77766 1.21405L11.7092 6.94774L12.3069 7.81976C9.83005 9.51874 9.59428 12.715 11.0094 14.7789C11.2923 15.1919 11.7052 14.909 11.7052 14.909C10.0068 12.4316 10.5254 9.64789 13.0028 7.94941L12.2724 4.29415C12.2724 4.29415 11.9996 3.33102 12.9622 3.05771C13.9253 2.78489 14.1987 3.74801 14.1987 3.74801L15.0421 6.25293C15.3765 7.24609 15.7324 8.23575 16.2035 9.17184C17.5335 11.8149 16.7391 15.0998 14.2312 16.8203C11.4955 18.696 7.75563 17.9986 5.87944 15.2634L1.34966 8.65724Z" fill="#F3D2A2"/>
<path d="M6.00733 16.0185C4.005 16.0185 1.98164 13.9951 1.98164 11.9928C1.98164 11.7159 1.7789 11.4922 1.50208 11.4922C1.22525 11.4922 0.980469 11.7159 0.980469 11.9928C0.980469 14.9963 3.00383 17.0196 6.00733 17.0196C6.28416 17.0196 6.50792 16.7749 6.50792 16.498C6.50792 16.2212 6.28416 16.0185 6.00733 16.0185Z" fill="#5DADEC"/>
<path d="M3.50409 16.9989C2.00234 16.9989 1.00117 15.9977 1.00117 14.496C1.00117 14.2192 0.777407 13.9954 0.500584 13.9954C0.223761 13.9954 0 14.2192 0 14.496C0 16.4983 1.50175 18.0001 3.50409 18.0001C3.78091 18.0001 4.00467 17.7763 4.00467 17.4995C4.00467 17.2227 3.78091 16.9989 3.50409 16.9989ZM12.014 0.980225C11.7377 0.980225 11.5134 1.20449 11.5134 1.48081C11.5134 1.75713 11.7377 1.98139 12.014 1.98139C14.0164 1.98139 16.0187 3.77799 16.0187 5.98607C16.0187 6.26239 16.243 6.48665 16.5193 6.48665C16.7956 6.48665 17.0199 6.26239 17.0199 5.98607C17.0199 3.22584 15.0175 0.980225 12.014 0.980225Z" fill="#5DADEC"/>
<path d="M14.5162 0C14.2399 0 14.0156 0.203237 14.0156 0.479559C14.0156 0.755882 14.2399 1.00117 14.5162 1.00117C16.018 1.00117 16.9981 2.11497 16.9981 3.48306C16.9981 3.75939 17.2429 3.98365 17.5197 3.98365C17.7965 3.98365 17.9993 3.75939 17.9993 3.48306C17.9993 1.56232 16.5185 0 14.5162 0Z" fill="#5DADEC"/>
</svg>
